<svg width="18" height="18" viewBox="0 0 18 18" fill="none" xmlns="http://www.w3.org/2000/svg">
<path fill-rule="evenodd" clip-rule="evenodd" d="M5.5669 14.8652C5.8834 14.8652 6.14065 15.1225 6.14065 15.439C6.14065 15.7555 5.8834 16.012 5.5669 16.012C5.2504 16.012 4.9939 15.7555 4.9939 15.439C4.9939 15.1225 5.2504 14.8652 5.5669 14.8652Z" stroke="white" stroke-width="1.5" stroke-linecap="round" stroke-linejoin="round"/>
<path fill-rule="evenodd" clip-rule="evenodd" d="M14.0061 14.8652C14.3226 14.8652 14.5799 15.1225 14.5799 15.439C14.5799 15.7555 14.3226 16.012 14.0061 16.012C13.6896 16.012 13.4324 15.7555 13.4324 15.439C13.4324 15.1225 13.6896 14.8652 14.0061 14.8652Z" stroke="white" stroke-width="1.5" stroke-linecap="round" stroke-linejoin="round"/>
<path d="M2.0625 2.4375L3.6225 2.7075L4.34475 11.3123C4.40325 12.0135 4.989 12.552 5.6925 12.552H13.8765C14.5485 12.552 15.1185 12.0585 15.2153 11.3925L15.927 6.474C16.0148 5.86725 15.5445 5.32425 14.9318 5.32425H3.873" stroke="white" stroke-width="1.5" stroke-linecap="round" stroke-linejoin="round"/>
<path d="M10.5942 8.09625H12.674" stroke="white" stroke-width="1.5" stroke-linecap="round" stroke-linejoin="round"/>
</svg>
