<svg width="64" height="64" viewBox="0 0 64 64" fill="none" xmlns="http://www.w3.org/2000/svg">
<path d="M52.3334 58.6662L46.888 53.8662L43.8187 51.0128L40.5734 47.9995L41.9067 52.6902H13.192C10.3163 52.6799 7.99266 50.3419 8.00002 47.4662V13.2182C7.9956 10.3446 10.3184 8.0098 13.192 7.99951H47.1414C50.015 8.0098 52.3378 10.3446 52.3334 13.2182V58.6662ZM40.2667 36.0208C39.1423 37.5289 37.5234 38.5937 35.6934 39.0288C36.4454 39.9888 37.352 41.0742 37.36 41.0848C40.419 41.1495 43.3154 39.7108 45.112 37.2342C45.02 32.1001 43.7732 27.0526 41.464 22.4662C39.4311 20.8709 36.9564 19.9399 34.376 19.7995H34.3467L33.992 20.2048C36.2969 20.8239 38.4462 21.9195 40.3014 23.4208C37.9409 22.1233 35.3506 21.2973 32.6747 20.9888C30.974 20.8 29.2567 20.817 27.56 21.0395C27.4401 21.0419 27.3206 21.0544 27.2027 21.0768H27.128C25.1396 21.3058 23.1995 21.8457 21.3787 22.6768C20.4667 23.0955 19.9067 23.3995 19.8827 23.4102C19.8587 23.4208 19.8827 23.4102 19.8827 23.3915C21.8504 21.8439 24.1205 20.7257 26.5467 20.1088L26.28 19.8048H26.264C23.6837 19.9455 21.2092 20.8765 19.176 22.4715C16.8585 27.0548 15.6111 32.1043 15.528 37.2395C17.3023 39.7325 20.2027 41.1767 23.2614 41.0902C23.2614 41.0902 24.216 39.9275 24.96 38.9862C23.176 38.5378 21.6041 37.4817 20.5147 35.9995C20.5334 36.0128 20.7974 36.1915 21.224 36.4262C21.2527 36.4599 21.2881 36.4871 21.328 36.5062C21.3618 36.5296 21.3975 36.5501 21.4347 36.5675C21.4769 36.5867 21.5171 36.6099 21.5547 36.6368C22.1497 36.9648 22.7672 37.25 23.4027 37.4902C24.6109 37.9686 25.8606 38.3346 27.136 38.5835C28.2527 38.794 29.3864 38.9012 30.5227 38.9035C31.5881 38.9034 32.6513 38.8052 33.6987 38.6102C34.9602 38.3887 36.1922 38.0236 37.3707 37.5222C38.3887 37.1306 39.36 36.6271 40.2667 36.0208ZM34.832 34.8822C33.6718 34.9834 32.5685 34.3619 32.0537 33.3173C31.5388 32.2727 31.718 31.0192 32.5049 30.1607C33.2918 29.3022 34.525 29.0148 35.6104 29.4369C36.6958 29.8591 37.4107 30.9043 37.4107 32.0688C37.4695 33.5566 36.3167 34.813 34.8294 34.8822H34.832ZM25.584 34.8822C24.125 34.755 23.0053 33.5335 23.0053 32.0688C23.0053 30.6042 24.125 29.3827 25.584 29.2555C26.2562 29.2576 26.8988 29.5317 27.3654 30.0155C27.8948 30.565 28.1828 31.3033 28.1654 32.0662C28.2271 33.5565 27.0715 34.8159 25.5814 34.8822H25.584Z" fill="#F8F8FF"/>
</svg>
