<svg width="64" height="64" viewBox="0 0 64 64" fill="none" xmlns="http://www.w3.org/2000/svg">
<g clip-path="url(#clip0)">
<path fill-rule="evenodd" clip-rule="evenodd" d="M62.5333 15.8608C62.976 14.4048 62.5333 13.3328 60.4133 13.3328H53.4133C51.632 13.3328 50.8107 14.2581 50.3653 15.2794C50.3653 15.2794 46.8053 23.8021 41.7627 29.3381C40.1307 30.9434 39.3893 31.4528 38.4987 31.4528C38.0533 31.4528 37.384 30.9434 37.384 29.4848V15.8608C37.384 14.1114 36.8933 13.3328 35.4107 13.3328H24.4027C23.2907 13.3328 22.6213 14.1434 22.6213 14.9141C22.6213 16.5701 25.144 16.9541 25.4027 21.6154V31.7434C25.4027 33.9648 24.9947 34.3674 24.104 34.3674C21.7307 34.3674 15.9573 25.8048 12.5307 16.0074C11.8667 14.1008 11.1947 13.3328 9.40533 13.3328H2.4C0.4 13.3328 0 14.2581 0 15.2794C0 17.0981 2.37333 26.1328 11.0533 38.0821C16.84 46.2421 24.9867 50.6661 32.408 50.6661C36.8587 50.6661 37.408 49.6848 37.408 47.9914V41.8234C37.408 39.8581 37.8293 39.4661 39.24 39.4661C40.28 39.4661 42.0587 39.9781 46.2133 43.9114C50.96 48.5754 51.7413 50.6661 54.4133 50.6661H61.4133C63.4133 50.6661 64.416 49.6848 63.84 47.7434C63.2053 45.8128 60.9387 43.0101 57.9333 39.6848C56.3013 37.7914 53.8533 35.7514 53.1093 34.7301C52.072 33.4208 52.368 32.8368 53.1093 31.6714C53.1093 31.6714 61.6427 19.8688 62.5307 15.8608H62.5333Z" fill="white"/>
</g>
<defs>
<clipPath id="clip0">
<rect width="64" height="64" fill="white" transform="translate(0 -0.000488281)"/>
</clipPath>
</defs>
</svg>
