<svg width="64" height="64" viewBox="0 0 64 64" fill="none" xmlns="http://www.w3.org/2000/svg">
<path d="M32.0159 50.6981H31.9626C31.7973 50.6981 15.2559 50.6661 11.0826 49.5328C8.78772 48.9145 6.99553 47.1213 6.3786 44.8261C5.62814 40.5924 5.26575 36.299 5.29593 31.9994C5.27654 27.6928 5.64874 23.3933 6.40793 19.1541C7.04182 16.8568 8.82614 15.0553 11.1173 14.3994C15.1759 13.3328 31.2613 13.3328 31.9439 13.3328H31.9999C32.1679 13.3328 48.7519 13.3648 52.8826 14.4981C55.1727 15.1195 56.9612 16.909 57.5813 19.1994C58.3556 23.4489 58.7191 27.763 58.6666 32.0821C58.6853 36.3835 58.3122 40.6777 57.5519 44.9114C56.927 47.2038 55.1337 48.9931 52.8399 49.6128C48.7866 50.6874 32.6986 50.6981 32.0159 50.6981ZM26.6826 24.0128L26.6693 40.0128L40.5679 32.0128L26.6826 24.0128Z" fill="#F8F8FF"/>
</svg>
